<?xml version="1.0" encoding="utf-8"?>
<!-- Generator: Adobe Illustrator 16.0.0, SVG Export Plug-In . SVG Version: 6.00 Build 0)  -->
<!DOCTYPE svg PUBLIC "-//W3C//DTD SVG 1.1//EN" "http://www.w3.org/Graphics/SVG/1.1/DTD/svg11.dtd">
<svg version="1.1" id="Layer_1" xmlns="http://www.w3.org/2000/svg" xmlns:xlink="http://www.w3.org/1999/xlink" x="0px" y="0px"
	 width="742px" height="185.89px" viewBox="0 0 742 185.89" enable-background="new 0 0 742 185.89" xml:space="preserve">
<g>
	<path fill="#FFFFFF" d="M21,89.965h2.047c0.819,4.368,3.549,14.878,11.057,22.25c8.328,8.191,15.699,8.191,21.159,8.191
		c19.112,0,24.025-14.062,24.025-21.16c0-27.164-56.241-11.056-56.241-50.233c0-14.471,13.651-28.123,32.899-28.123
		c12.013,0,17.746,5.052,22.114,5.052c2.457,0,3.003-0.683,3.823-2.867h2.184v25.938h-1.775c-4.232-12.559-8.737-26.21-26.483-26.21
		c-14.47,0-22.524,9.009-22.524,17.062c0,25.255,58.562,13.106,58.562,49.281c0,17.883-15.425,33.171-37.676,33.171
		c-11.194,0-23.07-5.188-26.756-5.188c-2.457,0-3.276,0.685-4.232,3.141H21V89.965L21,89.965z"/>
	<path fill="#FFFFFF" d="M107.268,63.618h-9.01v-1.911h25.39v10.102h0.274c2.866-7.917,8.19-12.013,16.108-12.013
		c21.022,0,29.759,18.43,29.759,31.125c0,16.244-12.014,31.259-29.759,31.259c-8.327,0-13.378-5.322-15.835-11.739h-0.273v46.14
		h9.282v1.912H98.258v-1.912h9.01V63.618L107.268,63.618z M140.03,120.269c10.101,0,11.33-11.468,11.33-29.213
		c0-21.979-3.14-29.35-12.423-29.35c-13.514,0-15.015,17.2-15.015,29.35C123.922,102.523,124.741,120.269,140.03,120.269
		L140.03,120.269z"/>
	<path fill="#FFFFFF" d="M246.226,90.92c0,16.926-14.469,31.259-33.308,31.259c-18.837,0-33.307-14.333-33.307-31.259
		c0-16.792,14.47-31.125,33.307-31.125C231.757,59.796,246.226,74.129,246.226,90.92L246.226,90.92z M227.798,90.92
		c0-14.608-0.683-29.214-14.88-29.214c-14.196,0-14.879,14.606-14.879,29.214c0,14.743,0.683,29.349,14.879,29.349
		C227.115,120.269,227.798,105.664,227.798,90.92L227.798,90.92z"/>
	<path fill="#FFFFFF" d="M249.635,61.707h25.254v11.467h0.273c3.277-6.962,8.6-12.696,17.61-12.696
		c7.508,0,12.831,4.369,12.831,11.604c0,5.46-2.593,8.737-8.326,8.737c-4.096,0-8.327-1.365-8.327-6.143
		c0-1.093,0.955-6.279,0.955-6.826c0-0.137,0-3.277-3.14-3.277c-3.821,0-11.603,7.236-11.603,18.84v34.946h10.784v1.91h-36.311
		v-1.91h8.873V63.618h-8.873V61.707L249.635,61.707z"/>
	<path fill="#FFFFFF" d="M318.429,44.098c2.73,1.091,5.597,1.91,8.328,1.91c2.73,0,5.596-0.819,8.327-1.91v17.608h15.97v1.911
		h-15.97v45.73c0,5.323,0.955,10.102,7.234,10.102c6.826,0,9.828-6.416,11.33-12.013l2.048,0.409
		c-2.32,12.423-11.33,14.333-18.155,14.333c-19.112,0-19.112-9.965-19.112-16.516V63.618h-9.146v-1.911h9.146V44.098L318.429,44.098
		z"/>
	<path fill="#FFFFFF" d="M362.517,100.475h1.912c4.23,10.237,8.325,19.794,21.021,19.794c3.141,0,12.15,0,12.15-10.511
		c0-3.414-1.094-6.963-10.785-10.513l-11.057-4.095c-5.051-1.91-12.423-6.142-12.423-15.834c0-10.648,9.147-19.521,22.388-19.521
		c6.824,0,12.287,3.412,14.471,3.412c1.91,0,2.32-0.955,2.594-1.775h1.91v16.654h-1.773c-3.688-8.872-6.824-16.38-18.156-16.38
		c-6.006,0-12.014,3.14-12.014,9.42c0,2.593,0.684,6.688,9.967,9.829l11.604,3.958c9.828,3.412,15.014,9.008,15.014,17.609
		c0,12.012-11.328,19.656-23.342,19.656c-6.688,0-15.833-3.82-19.11-3.82c-1.502,0-1.912,0.545-2.457,1.91h-1.912V100.475
		L362.517,100.475z"/>
	<path fill="#FFFFFF" d="M419.574,23.075h44.91v1.911h-12.557v93.374h22.521c11.877,0,25.254-7.646,29.896-28.942h1.773v30.853
		h-86.545v-1.91h12.557V24.985h-12.557V23.075L419.574,23.075z"/>
	<path fill="#FFFFFF" d="M515.396,61.707h25.797v56.652h9.148v1.91h-34.945v-1.91h9.145V63.618h-9.145V61.707L515.396,61.707z
		 M532.867,22.665c5.324,0,9.691,4.369,9.691,9.693c0,5.323-4.367,9.69-9.691,9.69s-9.691-4.368-9.691-9.69
		C523.176,27.034,527.543,22.665,532.867,22.665L532.867,22.665z"/>
	<path fill="#FFFFFF" d="M559.209,118.359h9.01V63.618h-9.01v-1.911H584.6v13.65h0.273c1.5-3.412,6.553-14.879,22.795-14.879
		c11.74,0,18.977,7.645,18.977,19.384v38.497h9.145v1.91h-34.264v-1.91h8.463V75.222c0-7.509-3.41-11.059-8.598-11.059
		c-8.736,0-16.518,8.329-16.518,24.983v29.213h8.6v1.91h-34.264V118.359L559.209,118.359z"/>
	<polygon fill="#FFFFFF" points="644.246,21.846 669.91,21.846 669.91,86.96 670.594,86.96 695.984,63.618 686.02,63.618 
		686.02,61.707 707.451,61.707 707.451,63.618 698.713,63.618 683.426,78.087 714.686,118.359 720.01,118.359 720.01,120.269 
		683.834,120.269 683.834,118.359 693.662,118.359 670.594,88.873 669.91,88.873 669.91,118.359 678.375,118.359 678.375,120.269 
		644.246,120.269 644.246,118.359 653.256,118.359 653.256,23.759 644.246,23.759 644.246,21.846 	"/>
	<path fill="#FFFFFF" d="M170.991,136.789h-17.607v1.896h7.734v19.808h2.14v-19.808h7.733V136.789L170.991,136.789z
		 M187.191,149.168c0-1.019-0.092-1.951-0.275-2.797c-0.183-0.846-0.479-1.569-0.886-2.17c-0.408-0.601-0.928-1.07-1.559-1.407
		c-0.632-0.336-1.406-0.504-2.323-0.504c-1.305,0-2.517,0.348-3.638,1.039c-1.121,0.693-1.997,1.642-2.629,2.843v-9.995h-2.078
		v22.314h2.078v-9.751c0.184-0.652,0.464-1.253,0.841-1.804s0.82-1.028,1.33-1.437c0.509-0.408,1.054-0.729,1.635-0.963
		c0.581-0.233,1.166-0.352,1.758-0.352c1.202,0,2.113,0.448,2.735,1.345s0.933,2.252,0.933,4.066v8.895h2.078V149.168
		L187.191,149.168z M200.732,158.506c0.713-0.192,1.365-0.469,1.957-0.824c0.59-0.357,1.11-0.775,1.558-1.255
		c0.448-0.478,0.795-1.013,1.04-1.604l-1.804-0.489c-0.183,0.429-0.448,0.82-0.794,1.176c-0.347,0.357-0.734,0.658-1.162,0.902
		c-0.428,0.245-0.897,0.439-1.406,0.581c-0.51,0.143-1.019,0.214-1.528,0.214c-0.775,0-1.504-0.147-2.186-0.442
		c-0.683-0.296-1.289-0.708-1.819-1.238c-0.53-0.53-0.963-1.157-1.299-1.88c-0.336-0.724-0.535-1.514-0.596-2.369h13.633
		c0.02-0.062,0.031-0.173,0.031-0.336s0-0.326,0-0.489c0-1.101-0.194-2.14-0.581-3.118c-0.388-0.978-0.928-1.844-1.62-2.599
		c-0.693-0.753-1.524-1.35-2.491-1.788c-0.969-0.438-2.033-0.657-3.195-0.657c-1.141,0-2.201,0.219-3.179,0.657
		c-0.978,0.438-1.818,1.03-2.521,1.772c-0.703,0.744-1.253,1.61-1.65,2.599c-0.398,0.989-0.596,2.044-0.596,3.164
		c0,1.142,0.198,2.211,0.596,3.21c0.397,0.998,0.952,1.88,1.666,2.644c0.713,0.765,1.553,1.365,2.522,1.804
		c0.967,0.438,2.032,0.656,3.194,0.656C199.275,158.796,200.019,158.7,200.732,158.506L200.732,158.506z M192.662,149.688
		c0.062-0.835,0.25-1.609,0.566-2.323c0.316-0.713,0.734-1.324,1.253-1.834c0.52-0.509,1.126-0.906,1.819-1.192
		c0.693-0.284,1.426-0.428,2.201-0.428c0.774,0,1.502,0.144,2.185,0.428c0.683,0.286,1.284,0.684,1.804,1.192
		c0.519,0.51,0.947,1.116,1.284,1.819c0.336,0.702,0.535,1.481,0.596,2.338H192.662L192.662,149.688z M219.928,158.492v-8.009h7.03
		c0.938,0,1.788-0.193,2.553-0.581c0.764-0.387,1.421-0.896,1.971-1.528c0.55-0.631,0.978-1.359,1.284-2.186
		c0.306-0.825,0.458-1.687,0.458-2.583c0-0.835-0.163-1.66-0.489-2.476c-0.326-0.814-0.774-1.544-1.345-2.186
		c-0.57-0.643-1.248-1.162-2.032-1.56c-0.785-0.396-1.646-0.596-2.583-0.596h-8.987v21.703H219.928L219.928,158.492z
		 M219.928,138.684h6.755c0.591,0,1.156,0.128,1.697,0.382c0.539,0.255,1.008,0.606,1.406,1.055
		c0.397,0.448,0.713,0.973,0.947,1.574c0.234,0.601,0.352,1.238,0.352,1.91c0,0.652-0.102,1.279-0.306,1.88
		c-0.204,0.602-0.489,1.131-0.856,1.59c-0.367,0.458-0.81,0.825-1.329,1.1c-0.52,0.275-1.096,0.413-1.727,0.413h-6.939V138.684
		L219.928,138.684z M244.32,142.504c-0.102-0.02-0.234-0.029-0.397-0.029c-1.142,0-2.212,0.346-3.21,1.039
		c-0.998,0.692-1.793,1.649-2.384,2.872v-3.82h-1.956v15.926h2.078v-9.904c0.428-1.283,1.162-2.293,2.201-3.025
		c1.039-0.734,2.262-1.121,3.668-1.162V142.504L244.32,142.504z M255.416,158.506c0.714-0.192,1.365-0.469,1.957-0.824
		c0.591-0.357,1.11-0.775,1.559-1.255c0.448-0.478,0.794-1.013,1.039-1.604l-1.803-0.489c-0.184,0.429-0.449,0.82-0.795,1.176
		c-0.347,0.357-0.734,0.658-1.162,0.902c-0.428,0.245-0.897,0.439-1.406,0.581c-0.509,0.143-1.019,0.214-1.528,0.214
		c-0.775,0-1.503-0.147-2.186-0.442c-0.683-0.296-1.289-0.708-1.819-1.238c-0.53-0.53-0.962-1.157-1.299-1.88
		c-0.336-0.724-0.535-1.514-0.596-2.369h13.633c0.02-0.062,0.031-0.173,0.031-0.336s0-0.326,0-0.489c0-1.101-0.194-2.14-0.581-3.118
		c-0.387-0.978-0.927-1.844-1.62-2.599c-0.693-0.753-1.524-1.35-2.491-1.788c-0.968-0.438-2.033-0.657-3.195-0.657
		c-1.141,0-2.2,0.219-3.178,0.657c-0.979,0.438-1.819,1.03-2.522,1.772c-0.703,0.744-1.254,1.61-1.651,2.599
		c-0.397,0.989-0.596,2.044-0.596,3.164c0,1.142,0.199,2.211,0.596,3.21c0.397,0.998,0.952,1.88,1.666,2.644
		c0.713,0.765,1.554,1.365,2.522,1.804c0.967,0.438,2.033,0.656,3.194,0.656C253.959,158.796,254.703,158.7,255.416,158.506
		L255.416,158.506z M247.347,149.688c0.061-0.835,0.249-1.609,0.565-2.323c0.316-0.713,0.734-1.324,1.253-1.834
		c0.52-0.509,1.126-0.906,1.819-1.192c0.693-0.284,1.426-0.428,2.201-0.428c0.774,0,1.503,0.144,2.186,0.428
		c0.682,0.286,1.283,0.684,1.803,1.192c0.52,0.51,0.948,1.116,1.284,1.819c0.336,0.702,0.535,1.481,0.596,2.338H247.347
		L247.347,149.688z M287.94,149.168c0-1.04-0.087-1.981-0.26-2.828c-0.174-0.845-0.449-1.568-0.825-2.17
		c-0.378-0.601-0.877-1.064-1.498-1.391c-0.622-0.326-1.381-0.489-2.278-0.489c-2.608,0-4.656,1.366-6.144,4.096
		c-0.183-1.223-0.677-2.211-1.482-2.965c-0.805-0.754-1.88-1.131-3.225-1.131c-1.284,0-2.456,0.342-3.515,1.024
		c-1.06,0.683-1.916,1.635-2.568,2.857v-3.606h-1.895v15.926h2.079v-9.751c0.407-1.365,1.08-2.466,2.017-3.301
		c0.937-0.836,2.007-1.254,3.21-1.254c1.181,0,2.058,0.428,2.628,1.284c0.571,0.855,0.856,2.231,0.856,4.127v8.895h2.079v-9.721
		c0.183-0.672,0.448-1.288,0.795-1.85c0.346-0.56,0.749-1.044,1.207-1.451c0.459-0.407,0.958-0.724,1.498-0.947
		c0.54-0.225,1.116-0.337,1.727-0.337c1.161,0,2.037,0.438,2.629,1.314c0.59,0.876,0.886,2.242,0.886,4.097v8.895h2.079V149.168
		L287.94,149.168z M294.42,158.492v-15.926h-2.079v15.926H294.42L294.42,158.492z M294.42,139.234v-3.057h-2.079v3.057H294.42
		L294.42,139.234z M308.113,158.506c0.713-0.192,1.365-0.469,1.957-0.824c0.59-0.357,1.11-0.775,1.559-1.255
		c0.448-0.478,0.794-1.013,1.039-1.604l-1.804-0.489c-0.183,0.429-0.448,0.82-0.794,1.176c-0.347,0.357-0.734,0.658-1.162,0.902
		c-0.428,0.245-0.897,0.439-1.406,0.581c-0.51,0.143-1.019,0.214-1.528,0.214c-0.775,0-1.503-0.147-2.186-0.442
		c-0.683-0.296-1.289-0.708-1.819-1.238s-0.963-1.157-1.299-1.88c-0.336-0.724-0.535-1.514-0.596-2.369h13.633
		c0.021-0.062,0.031-0.173,0.031-0.336s0-0.326,0-0.489c0-1.101-0.194-2.14-0.581-3.118c-0.387-0.978-0.928-1.844-1.62-2.599
		c-0.693-0.753-1.524-1.35-2.491-1.788c-0.969-0.438-2.033-0.657-3.195-0.657c-1.141,0-2.201,0.219-3.179,0.657
		s-1.818,1.03-2.521,1.772c-0.703,0.744-1.254,1.61-1.651,2.599c-0.397,0.989-0.596,2.044-0.596,3.164
		c0,1.142,0.199,2.211,0.596,3.21c0.397,0.998,0.952,1.88,1.666,2.644c0.713,0.765,1.554,1.365,2.522,1.804
		c0.967,0.438,2.032,0.656,3.194,0.656C306.656,158.796,307.4,158.7,308.113,158.506L308.113,158.506z M300.044,149.688
		c0.061-0.835,0.249-1.609,0.565-2.323c0.316-0.713,0.734-1.324,1.253-1.834c0.52-0.509,1.126-0.906,1.819-1.192
		c0.693-0.284,1.426-0.428,2.201-0.428c0.774,0,1.502,0.144,2.185,0.428c0.683,0.286,1.284,0.684,1.804,1.192
		c0.52,0.51,0.947,1.116,1.284,1.819c0.336,0.702,0.535,1.481,0.596,2.338H300.044L300.044,149.688z M324.894,142.504
		c-0.103-0.02-0.234-0.029-0.397-0.029c-1.141,0-2.211,0.346-3.21,1.039c-0.998,0.692-1.793,1.649-2.384,2.872v-3.82h-1.956v15.926
		h2.078v-9.904c0.428-1.283,1.162-2.293,2.201-3.025c1.04-0.734,2.262-1.121,3.668-1.162V142.504L324.894,142.504z M348.89,139.143
		c-0.917-0.795-1.941-1.411-3.072-1.851c-1.131-0.438-2.42-0.657-3.867-0.657c-1.142,0-2.181,0.139-3.118,0.413
		c-0.938,0.275-1.753,0.673-2.445,1.192c-0.693,0.521-1.228,1.172-1.605,1.956c-0.377,0.785-0.566,1.677-0.566,2.675
		c0,0.876,0.148,1.615,0.444,2.216c0.295,0.602,0.738,1.116,1.329,1.544c0.591,0.429,1.315,0.784,2.171,1.07
		c0.855,0.285,1.854,0.56,2.995,0.825c1.08,0.244,2.028,0.489,2.843,0.732c0.815,0.245,1.498,0.535,2.048,0.872
		c0.55,0.336,0.963,0.733,1.238,1.192c0.275,0.458,0.413,1.024,0.413,1.696c0,1.264-0.485,2.206-1.452,2.828
		c-0.969,0.621-2.319,0.932-4.051,0.932c-0.835,0-1.63-0.076-2.384-0.229c-0.754-0.152-1.462-0.366-2.124-0.642
		c-0.663-0.275-1.264-0.596-1.804-0.963s-1.004-0.754-1.39-1.162l-1.07,1.743c2.445,2.099,5.349,3.147,8.711,3.147
		c1.141,0,2.191-0.116,3.149-0.351c0.957-0.234,1.783-0.596,2.476-1.086c0.692-0.489,1.232-1.1,1.62-1.834
		c0.387-0.733,0.581-1.599,0.581-2.598c0-0.979-0.174-1.793-0.52-2.445c-0.347-0.652-0.846-1.208-1.498-1.666
		c-0.652-0.459-1.442-0.841-2.369-1.146c-0.927-0.306-1.971-0.581-3.133-0.825c-1.039-0.225-1.941-0.448-2.705-0.673
		c-0.764-0.224-1.391-0.488-1.88-0.795c-0.489-0.306-0.851-0.667-1.085-1.085c-0.235-0.417-0.352-0.952-0.352-1.604
		c0-1.243,0.438-2.227,1.315-2.95c0.876-0.723,2.272-1.085,4.187-1.085c1.304,0,2.466,0.214,3.485,0.642
		c1.019,0.429,1.834,0.989,2.445,1.682L348.89,139.143L348.89,139.143z M364.341,158.14c0.887-0.438,1.651-1.034,2.293-1.788
		s1.135-1.63,1.482-2.629c0.347-0.998,0.52-2.059,0.52-3.18c0-1.059-0.189-2.088-0.566-3.087c-0.377-0.998-0.901-1.88-1.574-2.644
		c-0.672-0.765-1.467-1.376-2.384-1.834c-0.917-0.459-1.926-0.688-3.026-0.688c-1.223,0-2.354,0.312-3.393,0.933
		s-1.885,1.432-2.537,2.43v-3.087h-1.865v22.437h2.079v-9.812c0.631,1.04,1.462,1.9,2.491,2.583
		c1.029,0.683,2.216,1.023,3.561,1.023C362.481,158.796,363.455,158.578,364.341,158.14L364.341,158.14z M359.129,156.658
		c-0.55-0.204-1.065-0.484-1.543-0.841c-0.479-0.356-0.907-0.779-1.284-1.269s-0.688-1.019-0.932-1.59v-4.891
		c0.081-0.529,0.3-1.034,0.657-1.514c0.356-0.478,0.784-0.896,1.284-1.253c0.499-0.355,1.039-0.642,1.62-0.855
		s1.136-0.321,1.666-0.321c0.835,0,1.614,0.174,2.338,0.521c0.723,0.347,1.35,0.814,1.88,1.405c0.53,0.592,0.948,1.274,1.253,2.049
		c0.306,0.774,0.459,1.589,0.459,2.444c0,0.816-0.133,1.605-0.398,2.369s-0.647,1.447-1.146,2.048
		c-0.499,0.603-1.1,1.085-1.803,1.452c-0.703,0.367-1.483,0.55-2.339,0.55C360.25,156.962,359.68,156.862,359.129,156.658
		L359.129,156.658z M382.131,158.14c0.969-0.438,1.803-1.034,2.506-1.788s1.248-1.63,1.637-2.629c0.387-0.998,0.58-2.049,0.58-3.148
		c0-1.121-0.199-2.18-0.596-3.179c-0.398-0.998-0.947-1.875-1.65-2.629s-1.539-1.355-2.508-1.804
		c-0.969-0.447-2.021-0.673-3.162-0.673c-1.143,0-2.191,0.226-3.15,0.673c-0.957,0.448-1.787,1.05-2.49,1.804
		s-1.254,1.631-1.651,2.629c-0.397,0.999-0.596,2.058-0.596,3.179c0,1.1,0.193,2.15,0.58,3.148c0.387,0.999,0.932,1.875,1.635,2.629
		c0.705,0.754,1.535,1.35,2.492,1.788c0.957,0.438,2.018,0.656,3.18,0.656C380.098,158.796,381.162,158.578,382.131,158.14
		L382.131,158.14z M373.617,148.083c0.307-0.785,0.725-1.472,1.254-2.063c0.529-0.591,1.141-1.055,1.834-1.392
		c0.693-0.336,1.438-0.504,2.232-0.504c0.793,0,1.543,0.168,2.246,0.504c0.703,0.337,1.318,0.795,1.85,1.376
		c0.529,0.581,0.947,1.265,1.252,2.048c0.307,0.785,0.459,1.615,0.459,2.491c0,0.897-0.152,1.733-0.459,2.507
		c-0.305,0.774-0.723,1.452-1.252,2.032c-0.531,0.581-1.146,1.04-1.85,1.376s-1.453,0.504-2.246,0.504
		c-0.795,0-1.545-0.163-2.248-0.488s-1.314-0.779-1.834-1.36s-0.932-1.253-1.238-2.017c-0.305-0.766-0.459-1.596-0.459-2.492
		S373.312,148.868,373.617,148.083L373.617,148.083z M398.285,142.504c-0.102-0.02-0.234-0.029-0.396-0.029
		c-1.143,0-2.211,0.346-3.211,1.039c-0.998,0.692-1.793,1.649-2.385,2.872v-3.82h-1.955v15.926h2.078v-9.904
		c0.428-1.283,1.162-2.293,2.201-3.025c1.039-0.734,2.262-1.121,3.668-1.162V142.504L398.285,142.504z M408.158,156.045
		c-0.123,0.082-0.408,0.221-0.855,0.413c-0.449,0.194-0.969,0.29-1.559,0.29c-0.49,0-0.924-0.137-1.301-0.412
		c-0.377-0.274-0.586-0.708-0.625-1.299v-10.821h3.668v-1.65h-3.668v-5.38h-2.08v5.38h-2.201v1.65h2.201v11.401
		c0,0.51,0.092,0.958,0.275,1.345c0.184,0.389,0.428,0.709,0.734,0.963c0.307,0.256,0.662,0.443,1.07,0.566
		c0.406,0.122,0.834,0.183,1.283,0.183c0.428,0,0.836-0.041,1.223-0.122c0.387-0.08,0.734-0.173,1.039-0.274
		c0.305-0.103,0.576-0.204,0.811-0.306c0.234-0.103,0.412-0.184,0.535-0.244L408.158,156.045L408.158,156.045z M421.119,157.514
		c1.119-0.856,1.682-2.019,1.682-3.485c0-0.673-0.135-1.243-0.398-1.712c-0.266-0.468-0.658-0.866-1.176-1.192
		c-0.521-0.326-1.168-0.61-1.941-0.855c-0.775-0.244-1.672-0.489-2.689-0.733c-0.715-0.163-1.32-0.321-1.82-0.474
		c-0.5-0.153-0.912-0.326-1.238-0.521c-0.326-0.192-0.561-0.423-0.703-0.688s-0.213-0.611-0.213-1.039
		c0-0.509,0.102-0.952,0.307-1.33c0.201-0.376,0.482-0.688,0.84-0.933c0.355-0.243,0.768-0.423,1.236-0.534
		c0.471-0.112,0.979-0.168,1.529-0.168c0.918,0,1.799,0.152,2.645,0.459c0.846,0.305,1.562,0.764,2.154,1.375l1.01-1.224
		c-0.611-0.651-1.416-1.176-2.416-1.574c-0.998-0.396-2.109-0.596-3.33-0.596c-0.816,0-1.586,0.103-2.309,0.307
		c-0.725,0.203-1.355,0.504-1.895,0.901c-0.541,0.397-0.969,0.901-1.285,1.513s-0.473,1.314-0.473,2.109
		c0,0.632,0.105,1.157,0.32,1.574c0.213,0.418,0.539,0.769,0.979,1.055c0.438,0.285,0.994,0.54,1.666,0.765
		c0.672,0.224,1.467,0.447,2.383,0.672c0.795,0.184,1.494,0.361,2.094,0.535c0.602,0.173,1.102,0.371,1.498,0.596
		c0.398,0.225,0.699,0.483,0.902,0.78c0.203,0.295,0.305,0.667,0.305,1.114c0,0.958-0.381,1.697-1.145,2.216
		c-0.766,0.521-1.789,0.78-3.072,0.78c-1.061,0-2.053-0.184-2.98-0.55c-0.928-0.367-1.84-0.917-2.736-1.651l-0.947,1.406
		c0.855,0.775,1.875,1.366,3.057,1.773c1.182,0.406,2.395,0.61,3.639,0.61C418.49,158.796,419.998,158.369,421.119,157.514
		L421.119,157.514z M436.555,158.492v-8.009h6.42l5.104,8.009h2.414l-5.316-8.376c0.732-0.142,1.395-0.412,1.986-0.81
		c0.59-0.397,1.094-0.887,1.514-1.468c0.416-0.581,0.742-1.232,0.977-1.956c0.234-0.723,0.352-1.482,0.352-2.277
		c0-0.835-0.158-1.66-0.475-2.476c-0.316-0.814-0.758-1.544-1.328-2.186c-0.572-0.643-1.25-1.162-2.033-1.56
		c-0.785-0.396-1.646-0.596-2.584-0.596h-9.17v21.703H436.555L436.555,158.492z M436.555,138.684h6.908
		c0.592,0,1.156,0.133,1.695,0.397c0.541,0.266,1.01,0.621,1.406,1.069c0.398,0.449,0.715,0.974,0.949,1.575
		c0.232,0.601,0.352,1.228,0.352,1.879c0,0.652-0.104,1.273-0.307,1.865c-0.203,0.591-0.488,1.12-0.855,1.59
		c-0.367,0.469-0.811,0.84-1.33,1.114c-0.52,0.275-1.096,0.413-1.727,0.413h-7.092V138.684L436.555,138.684z M462.598,158.506
		c0.713-0.192,1.365-0.469,1.957-0.824c0.59-0.357,1.109-0.775,1.559-1.255c0.447-0.478,0.795-1.013,1.039-1.604l-1.803-0.489
		c-0.184,0.429-0.449,0.82-0.795,1.176c-0.348,0.357-0.734,0.658-1.162,0.902c-0.428,0.245-0.896,0.439-1.406,0.581
		c-0.51,0.143-1.02,0.214-1.529,0.214c-0.773,0-1.502-0.147-2.184-0.442c-0.684-0.296-1.289-0.708-1.82-1.238
		c-0.529-0.53-0.963-1.157-1.299-1.88c-0.336-0.724-0.535-1.514-0.596-2.369h13.633c0.02-0.062,0.031-0.173,0.031-0.336
		s0-0.326,0-0.489c0-1.101-0.195-2.14-0.58-3.118c-0.389-0.978-0.93-1.844-1.621-2.599c-0.693-0.753-1.523-1.35-2.492-1.788
		c-0.967-0.438-2.033-0.657-3.193-0.657c-1.143,0-2.201,0.219-3.18,0.657c-0.977,0.438-1.818,1.03-2.521,1.772
		c-0.703,0.744-1.254,1.61-1.65,2.599c-0.398,0.989-0.596,2.044-0.596,3.164c0,1.142,0.197,2.211,0.596,3.21
		c0.396,0.998,0.953,1.88,1.666,2.644c0.713,0.765,1.553,1.365,2.521,1.804c0.969,0.438,2.033,0.656,3.195,0.656
		C461.141,158.796,461.885,158.7,462.598,158.506L462.598,158.506z M454.527,149.688c0.061-0.835,0.25-1.609,0.566-2.323
		c0.314-0.713,0.732-1.324,1.254-1.834c0.52-0.509,1.125-0.906,1.818-1.192c0.691-0.284,1.426-0.428,2.201-0.428
		c0.773,0,1.502,0.144,2.186,0.428c0.682,0.286,1.283,0.684,1.803,1.192c0.52,0.51,0.947,1.116,1.283,1.819
		c0.338,0.702,0.535,1.481,0.596,2.338H454.527L454.527,149.688z M470.928,153.693c0.396,0.998,0.951,1.88,1.666,2.644
		c0.713,0.765,1.559,1.365,2.535,1.804c0.979,0.438,2.049,0.656,3.211,0.656c0.754,0,1.482-0.097,2.186-0.29
		c0.703-0.192,1.344-0.469,1.926-0.824c0.58-0.357,1.084-0.775,1.512-1.255c0.43-0.478,0.756-1.003,0.979-1.573l-2.047-0.611
		c-0.123,0.367-0.336,0.713-0.643,1.039c-0.305,0.326-0.672,0.617-1.1,0.871c-0.428,0.255-0.893,0.454-1.391,0.596
		c-0.5,0.144-1.006,0.214-1.514,0.214c-0.795,0-1.545-0.168-2.248-0.504s-1.318-0.795-1.848-1.376
		c-0.531-0.58-0.949-1.268-1.254-2.062s-0.459-1.641-0.459-2.537c0-0.917,0.148-1.762,0.443-2.537
		c0.297-0.774,0.703-1.441,1.223-2.002s1.131-1.004,1.834-1.33s1.463-0.489,2.277-0.489c0.979,0,1.869,0.229,2.676,0.688
		c0.805,0.458,1.43,1.096,1.879,1.91l2.018-0.643c-0.57-1.161-1.416-2.083-2.537-2.766s-2.436-1.024-3.943-1.024
		c-1.182,0-2.262,0.214-3.24,0.643c-0.979,0.428-1.818,1.014-2.521,1.758s-1.248,1.615-1.635,2.613s-0.582,2.059-0.582,3.179
		C470.33,151.625,470.529,152.694,470.928,153.693L470.928,153.693z M496.16,142.504c-0.102-0.02-0.234-0.029-0.396-0.029
		c-1.143,0-2.211,0.346-3.211,1.039c-0.998,0.692-1.793,1.649-2.385,2.872v-3.82h-1.955v15.926h2.078v-9.904
		c0.428-1.283,1.162-2.293,2.201-3.025c1.039-0.734,2.262-1.121,3.668-1.162V142.504L496.16,142.504z M507.73,157.773
		c1.191-0.683,2.133-1.646,2.826-2.889v1.834c0,0.551,0.152,0.988,0.459,1.314s0.703,0.499,1.191,0.52c0.062,0,0.168,0,0.322,0
		c0.152,0,0.35-0.021,0.596-0.061v-1.834c-0.488,0-0.734-0.285-0.734-0.856v-13.235h-2.078v10.025
		c-0.244,0.674-0.566,1.274-0.963,1.805c-0.396,0.529-0.846,0.987-1.346,1.375s-1.045,0.683-1.635,0.887
		c-0.592,0.204-1.191,0.305-1.803,0.305c-2.467,0-3.699-1.803-3.699-5.41v-8.986h-2.078v9.354c0,2.282,0.422,3.999,1.268,5.15
		c0.846,1.152,2.135,1.727,3.867,1.727C505.27,158.796,506.537,158.456,507.73,157.773L507.73,157.773z M519.178,158.492v-15.926
		h-2.08v15.926H519.178L519.178,158.492z M519.178,139.234v-3.057h-2.08v3.057H519.178L519.178,139.234z M530.854,156.045
		c-0.123,0.082-0.408,0.221-0.857,0.413c-0.447,0.194-0.967,0.29-1.557,0.29c-0.49,0-0.924-0.137-1.301-0.412
		c-0.377-0.274-0.586-0.708-0.625-1.299v-10.821h3.668v-1.65h-3.668v-5.38h-2.08v5.38h-2.201v1.65h2.201v11.401
		c0,0.51,0.092,0.958,0.275,1.345c0.184,0.389,0.428,0.709,0.734,0.963c0.305,0.256,0.662,0.443,1.07,0.566
		c0.406,0.122,0.834,0.183,1.283,0.183c0.428,0,0.834-0.041,1.223-0.122c0.387-0.08,0.732-0.173,1.039-0.274
		c0.305-0.103,0.576-0.204,0.811-0.306c0.234-0.103,0.412-0.184,0.535-0.244L530.854,156.045L530.854,156.045z M557.691,149.168
		c0-1.04-0.088-1.981-0.26-2.828c-0.174-0.845-0.449-1.568-0.826-2.17c-0.377-0.601-0.875-1.064-1.498-1.391
		c-0.621-0.326-1.381-0.489-2.277-0.489c-2.607,0-4.656,1.366-6.143,4.096c-0.184-1.223-0.678-2.211-1.484-2.965
		c-0.805-0.754-1.879-1.131-3.223-1.131c-1.285,0-2.457,0.342-3.518,1.024c-1.059,0.683-1.914,1.635-2.566,2.857v-3.606h-1.895
		v15.926h2.078v-9.751c0.406-1.365,1.08-2.466,2.018-3.301c0.938-0.836,2.006-1.254,3.209-1.254c1.182,0,2.059,0.428,2.629,1.284
		c0.57,0.855,0.855,2.231,0.855,4.127v8.895h2.078v-9.721c0.186-0.672,0.449-1.288,0.795-1.85c0.348-0.56,0.75-1.044,1.207-1.451
		c0.459-0.407,0.959-0.724,1.498-0.947c0.541-0.225,1.117-0.337,1.729-0.337c1.162,0,2.037,0.438,2.629,1.314
		c0.59,0.876,0.885,2.242,0.885,4.097v8.895h2.08V149.168L557.691,149.168z M571.201,158.506c0.713-0.192,1.365-0.469,1.957-0.824
		c0.59-0.357,1.109-0.775,1.559-1.255c0.447-0.478,0.795-1.013,1.039-1.604l-1.805-0.489c-0.182,0.429-0.447,0.82-0.793,1.176
		c-0.348,0.357-0.734,0.658-1.162,0.902c-0.428,0.245-0.896,0.439-1.406,0.581c-0.51,0.143-1.02,0.214-1.527,0.214
		c-0.775,0-1.504-0.147-2.188-0.442c-0.682-0.296-1.289-0.708-1.818-1.238s-0.961-1.157-1.299-1.88
		c-0.336-0.724-0.535-1.514-0.596-2.369h13.633c0.02-0.062,0.031-0.173,0.031-0.336s0-0.326,0-0.489c0-1.101-0.195-2.14-0.582-3.118
		c-0.387-0.978-0.926-1.844-1.619-2.599c-0.693-0.753-1.523-1.35-2.49-1.788c-0.969-0.438-2.033-0.657-3.195-0.657
		c-1.143,0-2.201,0.219-3.178,0.657c-0.98,0.438-1.82,1.03-2.523,1.772c-0.703,0.744-1.254,1.61-1.65,2.599
		c-0.396,0.989-0.596,2.044-0.596,3.164c0,1.142,0.199,2.211,0.596,3.21c0.396,0.998,0.951,1.88,1.666,2.644
		c0.713,0.765,1.555,1.365,2.521,1.804c0.967,0.438,2.033,0.656,3.195,0.656C569.744,158.796,570.488,158.7,571.201,158.506
		L571.201,158.506z M563.131,149.688c0.062-0.835,0.25-1.609,0.566-2.323c0.316-0.713,0.734-1.324,1.252-1.834
		c0.521-0.509,1.127-0.906,1.82-1.192c0.691-0.284,1.426-0.428,2.201-0.428c0.773,0,1.502,0.144,2.186,0.428
		c0.682,0.286,1.283,0.684,1.803,1.192c0.52,0.51,0.947,1.116,1.283,1.819c0.336,0.702,0.535,1.481,0.596,2.338H563.131
		L563.131,149.688z M593.424,149.168c0-1.04-0.082-1.986-0.244-2.843c-0.164-0.855-0.43-1.579-0.795-2.17
		c-0.367-0.591-0.857-1.05-1.469-1.376c-0.609-0.326-1.354-0.489-2.23-0.489c-1.426,0-2.746,0.357-3.959,1.07
		c-1.211,0.714-2.145,1.65-2.797,2.812v-3.606h-1.895v15.926h2.078v-9.751c0.184-0.652,0.479-1.258,0.887-1.819
		c0.408-0.56,0.871-1.044,1.391-1.451s1.086-0.724,1.695-0.947c0.613-0.225,1.225-0.337,1.834-0.337
		c1.162,0,2.023,0.428,2.584,1.284c0.561,0.855,0.842,2.231,0.842,4.127v8.895h2.078V149.168L593.424,149.168z M604.795,156.045
		c-0.123,0.082-0.408,0.221-0.855,0.413c-0.449,0.194-0.969,0.29-1.561,0.29c-0.488,0-0.922-0.137-1.299-0.412
		c-0.377-0.274-0.586-0.708-0.627-1.299v-10.821h3.668v-1.65h-3.668v-5.38h-2.078v5.38h-2.199v1.65h2.199v11.401
		c0,0.51,0.092,0.958,0.275,1.345c0.184,0.389,0.428,0.709,0.734,0.963c0.305,0.256,0.66,0.443,1.068,0.566
		c0.408,0.122,0.836,0.183,1.285,0.183c0.428,0,0.834-0.041,1.223-0.122c0.387-0.08,0.732-0.173,1.039-0.274
		c0.307-0.103,0.574-0.204,0.811-0.306c0.232-0.103,0.412-0.184,0.535-0.244L604.795,156.045L604.795,156.045z M612.863,158.492
		h2.293l2.781-6.786h9.752l2.811,6.786h2.264l-9.018-21.703h-1.805L612.863,158.492L612.863,158.492z M618.396,150.025l4.432-10.729
		l4.371,10.729H618.396L618.396,150.025z M644.715,157.819c1.059-0.591,1.895-1.396,2.506-2.415v3.148
		c0,0.856-0.152,1.605-0.457,2.247c-0.307,0.642-0.719,1.171-1.238,1.59c-0.521,0.417-1.127,0.733-1.82,0.947
		c-0.691,0.214-1.426,0.321-2.201,0.321c-1.201,0-2.322-0.24-3.361-0.719c-1.039-0.479-1.875-1.229-2.506-2.246l-1.283,1.008
		c0.691,1.101,1.598,1.977,2.719,2.629s2.598,0.979,4.432,0.979c1.061,0,2.064-0.144,3.012-0.429
		c0.947-0.284,1.773-0.713,2.477-1.283s1.262-1.279,1.68-2.124c0.418-0.847,0.629-1.819,0.629-2.92v-15.986h-1.865v3.332
		c-0.713-1.039-1.57-1.9-2.568-2.583s-2.18-1.024-3.545-1.024c-1.1,0-2.104,0.226-3.012,0.673c-0.906,0.448-1.686,1.05-2.338,1.804
		s-1.156,1.635-1.514,2.644c-0.355,1.009-0.533,2.063-0.533,3.164c0,1.039,0.182,2.048,0.549,3.026
		c0.367,0.978,0.881,1.845,1.545,2.598c0.662,0.754,1.445,1.36,2.352,1.819c0.908,0.458,1.912,0.688,3.012,0.688
		C642.545,158.706,643.654,158.411,644.715,157.819L644.715,157.819z M639.641,156.458c-0.713-0.336-1.34-0.795-1.879-1.376
		c-0.541-0.58-0.965-1.258-1.27-2.032c-0.305-0.773-0.459-1.59-0.459-2.445c0-0.794,0.127-1.579,0.383-2.354
		c0.254-0.773,0.627-1.468,1.115-2.079c0.49-0.61,1.086-1.104,1.789-1.481s1.502-0.566,2.398-0.566c0.57,0,1.137,0.103,1.697,0.307
		c0.561,0.203,1.084,0.479,1.574,0.824c0.488,0.348,0.926,0.765,1.314,1.253c0.387,0.489,0.691,1.021,0.916,1.591v4.921
		c-0.102,0.488-0.316,0.968-0.641,1.437c-0.328,0.469-0.729,0.893-1.209,1.269c-0.479,0.378-1.014,0.678-1.604,0.901
		c-0.592,0.226-1.193,0.336-1.805,0.336C641.127,156.962,640.354,156.794,639.641,156.458L639.641,156.458z M662.994,158.506
		c0.713-0.192,1.365-0.469,1.955-0.824c0.592-0.357,1.111-0.775,1.561-1.255c0.447-0.478,0.795-1.013,1.039-1.604l-1.805-0.489
		c-0.182,0.429-0.447,0.82-0.795,1.176c-0.346,0.357-0.732,0.658-1.16,0.902c-0.428,0.245-0.896,0.439-1.406,0.581
		c-0.51,0.143-1.02,0.214-1.529,0.214c-0.773,0-1.502-0.147-2.186-0.442c-0.682-0.296-1.289-0.708-1.818-1.238
		s-0.963-1.157-1.299-1.88c-0.336-0.724-0.535-1.514-0.596-2.369h13.633c0.02-0.062,0.029-0.173,0.029-0.336s0-0.326,0-0.489
		c0-1.101-0.193-2.14-0.58-3.118c-0.387-0.978-0.928-1.844-1.619-2.599c-0.693-0.753-1.523-1.35-2.492-1.788
		s-2.031-0.657-3.193-0.657c-1.143,0-2.201,0.219-3.18,0.657s-1.818,1.03-2.521,1.772c-0.703,0.744-1.254,1.61-1.65,2.599
		c-0.398,0.989-0.596,2.044-0.596,3.164c0,1.142,0.197,2.211,0.596,3.21c0.396,0.998,0.951,1.88,1.664,2.644
		c0.715,0.765,1.555,1.365,2.523,1.804c0.967,0.438,2.033,0.656,3.195,0.656C661.537,158.796,662.279,158.7,662.994,158.506
		L662.994,158.506z M654.924,149.688c0.061-0.835,0.25-1.609,0.566-2.323c0.314-0.713,0.732-1.324,1.252-1.834
		c0.521-0.509,1.127-0.906,1.82-1.192c0.691-0.284,1.426-0.428,2.201-0.428c0.773,0,1.502,0.144,2.184,0.428
		c0.684,0.286,1.285,0.684,1.805,1.192c0.52,0.51,0.947,1.116,1.283,1.819c0.336,0.702,0.535,1.481,0.596,2.338H654.924
		L654.924,149.688z M685.215,149.168c0-1.04-0.08-1.986-0.242-2.843c-0.164-0.855-0.43-1.579-0.795-2.17
		c-0.367-0.591-0.857-1.05-1.469-1.376s-1.355-0.489-2.23-0.489c-1.428,0-2.746,0.357-3.959,1.07
		c-1.213,0.714-2.145,1.65-2.797,2.812v-3.606h-1.895v15.926h2.078v-9.751c0.184-0.652,0.479-1.258,0.887-1.819
		c0.406-0.56,0.871-1.044,1.391-1.451s1.086-0.724,1.695-0.947c0.611-0.225,1.225-0.337,1.834-0.337
		c1.162,0,2.023,0.428,2.584,1.284c0.561,0.855,0.84,2.231,0.84,4.127v8.895h2.078V149.168L685.215,149.168z M689.145,153.693
		c0.396,0.998,0.951,1.88,1.666,2.644c0.713,0.765,1.559,1.365,2.537,1.804c0.977,0.438,2.047,0.656,3.209,0.656
		c0.754,0,1.482-0.097,2.186-0.29c0.703-0.192,1.344-0.469,1.926-0.824c0.58-0.357,1.084-0.775,1.514-1.255
		c0.426-0.478,0.752-1.003,0.977-1.573l-2.047-0.611c-0.123,0.367-0.336,0.713-0.643,1.039s-0.674,0.617-1.102,0.871
		c-0.428,0.255-0.891,0.454-1.389,0.596c-0.5,0.144-1.004,0.214-1.514,0.214c-0.795,0-1.545-0.168-2.246-0.504
		c-0.703-0.336-1.32-0.795-1.85-1.376c-0.531-0.58-0.949-1.268-1.254-2.062s-0.459-1.641-0.459-2.537
		c0-0.917,0.148-1.762,0.443-2.537c0.295-0.774,0.703-1.441,1.223-2.002s1.131-1.004,1.834-1.33s1.463-0.489,2.277-0.489
		c0.979,0,1.869,0.229,2.676,0.688c0.803,0.458,1.43,1.096,1.879,1.91l2.018-0.643c-0.57-1.161-1.418-2.083-2.537-2.766
		c-1.121-0.683-2.436-1.024-3.943-1.024c-1.182,0-2.262,0.214-3.24,0.643c-0.979,0.428-1.818,1.014-2.521,1.758
		s-1.248,1.615-1.637,2.613c-0.387,0.998-0.58,2.059-0.58,3.179C688.547,151.625,688.746,152.694,689.145,153.693L689.145,153.693z
		 M707.133,165.216c0.264,0.04,0.488,0.065,0.672,0.076c0.184,0.01,0.377,0.016,0.582,0.016c0.895,0,1.604-0.22,2.123-0.657
		c0.52-0.438,0.893-0.953,1.115-1.544l8.254-20.541h-1.986l-5.473,14l-5.898-14h-2.141l6.939,15.926
		c-0.469,1.1-0.83,1.976-1.086,2.628c-0.254,0.652-0.484,1.152-0.688,1.498c-0.203,0.347-0.412,0.571-0.627,0.673
		c-0.213,0.102-0.504,0.153-0.869,0.153c-0.145,0-0.291-0.006-0.445-0.017c-0.152-0.01-0.311-0.024-0.473-0.046V165.216
		L707.133,165.216z"/>
</g>
</svg>
